<svg width="58" height="57" viewBox="0 0 58 57" fill="none" xmlns="http://www.w3.org/2000/svg">
<circle cx="29.1487" cy="28.2385" r="28.2385" fill="#FFF7F7"/>
<path d="M32.217 20.4409C32.2812 20.4409 32.3317 20.4179 32.3363 20.3904C32.3363 20.3674 32.428 20.395 32.529 20.4592C32.6345 20.5235 32.7584 20.6428 32.7997 20.7255C32.841 20.8081 32.9007 20.9779 32.9282 21.1064C32.9603 21.2717 32.9603 21.4323 32.9282 21.6802C32.9007 21.8684 32.864 22.0428 32.8456 22.0658C32.8272 22.0887 32.6988 22.0979 32.5611 22.0887C32.4005 22.075 32.2537 22.0291 32.1573 21.9648C32.0701 21.9051 31.96 21.7582 31.8866 21.5976C31.8177 21.4553 31.7535 21.2304 31.7397 21.1064C31.7306 20.9687 31.7443 20.8173 31.7856 20.7209C31.8223 20.6382 31.9049 20.5373 31.9738 20.5051C32.0472 20.4684 32.1527 20.4409 32.217 20.4409Z" fill="#F6FEF6"/>
<path d="M28.803 21.1982C28.8902 21.1523 29.0921 21.0973 29.2573 21.0789C29.4225 21.0651 29.6014 21.0468 29.6565 21.0422C29.7299 21.0376 29.762 21.0651 29.762 21.1156C29.762 21.1799 29.684 21.2166 29.4087 21.2763C29.2114 21.3176 28.9498 21.3681 28.8305 21.3864C28.6516 21.4094 28.6103 21.4048 28.6241 21.3543C28.6378 21.3176 28.7158 21.2487 28.803 21.1982Z" fill="#F6FEF6"/>
<path d="M30.5421 28.1294C30.5972 27.8494 30.6522 27.4546 30.666 27.2435C30.6844 26.9589 30.7073 26.8671 30.7578 26.8671C30.8037 26.8671 30.8312 26.9359 30.845 27.0828C30.8541 27.2067 30.8633 27.4408 30.8633 27.6107C30.8633 27.7851 30.822 28.1569 30.7715 28.4369C30.7256 28.7215 30.5926 29.2861 30.4825 29.69C30.3677 30.0939 30.2393 30.5759 30.1934 30.7641C30.1429 30.9523 30.0419 31.2185 29.9639 31.3608C29.8813 31.5077 29.7437 31.6729 29.6427 31.7418C29.5464 31.8106 29.3307 31.9024 29.1655 31.9438C28.9269 32.0034 28.7388 32.0126 28.2248 31.9943C27.8715 31.9805 27.3346 31.9254 27.0318 31.8703C26.7289 31.8198 26.2425 31.7234 25.9535 31.6592C25.6644 31.5949 25.1046 31.448 24.7145 31.3379C24.3245 31.2277 23.8932 31.0946 23.7601 31.0441C23.6316 30.9936 23.5215 30.9293 23.5215 30.9064C23.5215 30.8788 23.5307 30.8605 23.5444 30.8605C23.5582 30.8605 24.1822 31.0028 24.9302 31.1772C25.6827 31.3516 26.472 31.5261 26.6876 31.5674C26.9033 31.6041 27.252 31.6592 27.4677 31.6867C27.6834 31.7188 28.0734 31.7372 28.3396 31.7372C28.6791 31.7372 28.8489 31.7143 28.9131 31.6684C28.9636 31.6362 29.0875 31.5857 29.1839 31.5674C29.3032 31.5398 29.4087 31.471 29.5005 31.3654C29.5785 31.2782 29.6749 31.1221 29.7161 31.0211C29.762 30.9202 29.941 30.3418 30.1199 29.7359C30.2989 29.13 30.4916 28.4048 30.5421 28.1294Z" fill="#F6FEF6"/>
<path d="M29.3307 38.0441C29.4959 36.9837 29.6381 36.0887 29.6519 36.0565C29.6611 36.0152 29.8125 36.0014 30.1842 36.0014C30.4687 36.0014 30.7119 36.0106 30.7256 36.0198C30.7394 36.0336 30.6935 36.3916 30.6247 36.8139C30.5559 37.2362 30.5146 37.5988 30.5329 37.6126C30.5513 37.6309 30.9 37.2729 32.0564 36.0014H32.3179C32.4647 36.0014 32.7355 36.0382 32.9144 36.0841C33.098 36.1254 33.2494 36.1851 33.2494 36.208C33.2494 36.231 32.8456 36.6578 31.4507 38.0441L32.0564 38.9621L32.0821 39.0009C32.406 39.4892 32.681 39.9037 32.7034 39.926C32.7217 39.9536 33.1301 39.1916 33.6532 38.1359C34.5021 36.4421 34.5801 36.2998 34.6811 36.3182C34.7361 36.3273 34.961 36.2952 35.1766 36.2539C35.3923 36.2126 35.6447 36.1391 35.7364 36.0887C35.8328 36.0428 35.9521 36.0014 36.0026 36.0014C36.0531 36.0014 36.0944 36.0152 36.0944 36.0336C36.0944 36.0565 36.2825 36.947 36.5119 38.0211C36.7368 39.0952 36.9341 40.0086 36.9433 40.0499C36.9662 40.1234 36.9157 40.1326 36.3926 40.1326C35.9659 40.1326 35.819 40.1188 35.819 40.0729C35.819 40.0454 35.7869 39.8663 35.6814 39.3522H34.236L33.8459 40.1326H31.5287L30.978 39.2604C30.6752 38.7785 30.4182 38.3883 30.4044 38.3883C30.3907 38.3883 30.3173 38.7739 30.1062 40.1096L29.5647 40.1188C29.0783 40.1326 29.0279 40.1234 29.0279 40.0499C29.0279 40.0086 29.1655 39.1044 29.3307 38.0441Z" fill="#F6FEF6"/>
<path d="M31.1382 20.3766C31.3034 20.3123 31.4869 20.2526 31.5512 20.2434C31.6154 20.2343 31.7393 20.2205 31.8265 20.2205C31.9137 20.2159 32.0559 20.2389 32.1431 20.271C32.2303 20.3031 32.3083 20.3536 32.3175 20.3857C32.3266 20.4179 32.2853 20.4408 32.2165 20.4408C32.1523 20.4408 32.0467 20.4684 31.9779 20.5051C31.9045 20.5372 31.8219 20.6382 31.7852 20.7208C31.7439 20.8172 31.7301 20.9687 31.7393 21.1064C31.7531 21.2349 31.8173 21.4552 31.8861 21.6021C31.9596 21.7582 32.0697 21.9051 32.1615 21.9647C32.2441 22.0244 32.4138 22.0795 32.5469 22.0933C32.7396 22.1116 32.7717 22.13 32.7304 22.1759C32.6983 22.208 32.602 22.2447 32.5148 22.2631C32.4047 22.2769 32.2119 22.2402 31.8953 22.1392C31.5741 22.0382 31.2896 21.9831 30.9546 21.9556C30.6885 21.9372 30.4178 21.8959 30.3489 21.8684C30.2755 21.8408 30.2067 21.7903 30.1929 21.7628C30.1746 21.7215 30.1195 21.749 30.0186 21.85C29.936 21.9418 29.8121 22.0106 29.7157 22.029C29.6285 22.0428 29.367 22.0336 29.1421 22.0015C28.9173 21.9739 28.6879 21.928 28.6374 21.9005C28.5869 21.8729 28.5318 21.827 28.5135 21.7995C28.4951 21.772 28.4768 21.6664 28.4768 21.3818H28.72C28.8485 21.3772 29.1375 21.3359 29.3578 21.29C29.6744 21.2166 29.7616 21.1798 29.7708 21.111C29.78 21.0559 29.9543 20.9411 30.3122 20.7575C30.6013 20.6107 30.973 20.4362 31.1382 20.3766Z" fill="#F8D10D"/>
<path d="M32.914 21.0605C32.8773 20.9366 32.836 20.7943 32.8176 20.7438C32.7947 20.6841 32.8039 20.6657 32.8452 20.6795C32.8773 20.6887 32.9507 20.7713 33.0104 20.8585C33.0654 20.9457 33.148 21.1293 33.1847 21.267C33.226 21.4048 33.3086 21.5746 33.3683 21.648C33.4279 21.7169 33.4784 21.8087 33.4784 21.8546C33.4784 21.8959 33.4233 21.9877 33.3545 22.0566C33.2811 22.1254 33.1618 22.2034 33.0884 22.231C33.0149 22.2539 32.9461 22.2677 32.9415 22.2539C32.9323 22.2402 32.9507 22.1897 32.9736 22.1392L32.9737 22.1392C32.9966 22.0887 33.0195 22.0382 33.0195 22.0244C33.0195 22.0106 32.9874 22.0106 32.9507 22.0244C32.8956 22.0428 32.8865 22.0152 32.9048 21.8775C32.914 21.7811 32.9369 21.6113 32.9507 21.4966C32.9645 21.3772 32.9507 21.1936 32.914 21.0605Z" fill="#F8D10D"/>
<path d="M31.0005 22.8736C31.1887 22.8139 31.4502 22.7543 31.5741 22.7359C31.698 22.7175 31.9366 22.6992 32.1018 22.6946C32.2716 22.69 32.5561 22.7267 32.7672 22.7818C32.9691 22.8369 33.2352 22.9333 33.3591 23.0021C33.483 23.071 33.6941 23.25 33.8317 23.4015C34.0199 23.608 34.1805 23.8788 34.4925 24.5031C34.7173 24.9575 34.9743 25.5359 35.0661 25.7883C35.1578 26.0454 35.2404 26.3805 35.2542 26.5457C35.2771 26.8165 35.268 26.8578 35.1716 26.968C35.0752 27.0782 35.0018 27.1057 34.6026 27.1608C34.3502 27.1975 33.9281 27.2434 33.6619 27.2618C33.3407 27.2832 33.096 27.3276 32.9278 27.3949C32.7901 27.45 32.5836 27.5509 32.4689 27.6244C32.3542 27.6978 32.1523 27.8631 32.0192 28.0008C31.8907 28.1339 31.7118 28.3726 31.6246 28.5332C31.5374 28.6893 31.4135 28.9739 31.3539 29.1621C31.2896 29.3503 31.2162 29.6624 31.1887 29.8506C31.1611 30.0388 31.1198 30.4749 31.0969 30.8145C31.0694 31.3057 31.0372 31.4755 30.9592 31.6316C30.9088 31.7372 30.794 31.8749 30.7114 31.9345C30.6334 31.9942 30.4682 32.0768 30.3444 32.1181C30.225 32.1595 29.991 32.2145 29.8167 32.2421C29.6469 32.2696 29.1146 32.288 28.6374 32.288C28.1602 32.288 27.403 32.2558 26.9625 32.2145C26.522 32.1778 25.7374 32.1044 25.2188 32.0539C24.7003 31.9988 24.0396 31.9299 23.7505 31.8932C23.4614 31.8565 22.9979 31.7785 22.2271 31.6178L22.2454 31.1818C22.2592 30.8926 22.2913 30.6998 22.3418 30.608C22.3831 30.5345 22.4335 30.4427 22.4519 30.4152C22.4794 30.3693 22.6217 30.3877 23.0851 30.484C23.4109 30.5529 23.7551 30.6539 23.8423 30.7044C23.9294 30.7549 24.1589 30.8513 24.347 30.9201C24.5351 30.9844 24.8563 31.0808 25.0582 31.1358C25.2601 31.1863 25.6731 31.269 25.976 31.3149C26.2788 31.3654 26.857 31.4388 27.2608 31.4755C27.6646 31.5122 28.206 31.5581 28.463 31.5719C28.7337 31.5857 28.9356 31.6132 28.9356 31.6408C28.9356 31.6683 28.8898 31.7004 28.8301 31.7142C28.775 31.7326 28.5318 31.7417 28.2932 31.7417C28.0546 31.7417 27.6829 31.7188 27.4673 31.6867C27.2516 31.6591 26.9029 31.604 26.6872 31.5673C26.4715 31.526 25.6823 31.3516 24.9343 31.1772C24.1818 31.0027 23.5578 30.8604 23.544 30.8604C23.5302 30.8604 23.521 30.8834 23.521 30.9063C23.521 30.9339 23.6312 30.9936 23.7642 31.044C23.8927 31.0945 24.3241 31.2277 24.7141 31.3378C25.1041 31.448 25.6639 31.5949 25.953 31.6591C26.2421 31.7234 26.7285 31.8198 27.0314 31.8703C27.3342 31.9254 27.8711 31.9804 28.2244 31.9942C28.7383 32.0126 28.9265 32.0034 29.1651 31.9437C29.3303 31.9024 29.5459 31.8106 29.6423 31.7417C29.7432 31.6729 29.8809 31.5077 29.9635 31.3608C30.0415 31.2185 30.1425 30.9522 30.1929 30.764C30.2388 30.5759 30.3673 30.0939 30.482 29.69C30.5921 29.286 30.7252 28.7214 30.7711 28.4414C30.8216 28.1568 30.8629 27.785 30.8629 27.6152C30.8629 27.4408 30.8491 27.2067 30.8307 27.0828C30.8078 26.9634 30.7757 26.867 30.7482 26.867C30.7206 26.867 30.6885 27.0369 30.6701 27.2434C30.6518 27.4546 30.5967 27.8493 30.5417 28.1293C30.4912 28.4093 30.2985 29.13 30.1195 29.7359C29.9406 30.3418 29.7616 30.9201 29.7157 31.0211C29.6744 31.1221 29.5735 31.2827 29.4955 31.3791C29.4129 31.4709 29.3119 31.549 29.2706 31.549C29.2018 31.549 29.2201 31.4801 29.3945 31.1221C29.5092 30.8926 29.679 30.4611 29.7754 30.1719C29.8671 29.8827 30.0599 29.1942 30.1975 28.648C30.4086 27.8034 30.4499 27.5831 30.4499 27.2342C30.4499 26.991 30.4132 26.6559 30.3627 26.4218C30.3122 26.1969 30.1975 25.7792 30.1057 25.49C30.014 25.2008 29.8993 24.806 29.8488 24.6178C29.8029 24.4297 29.7616 24.1542 29.7616 24.012C29.7616 23.8651 29.7891 23.6906 29.8258 23.6218C29.858 23.5483 29.9635 23.4244 30.0553 23.3464C30.147 23.2638 30.3168 23.1444 30.4407 23.0847C30.56 23.0251 30.8124 22.9287 31.0005 22.8736Z" fill="#F8D10D"/>
<path d="M17.4692 35.2441L19.9104 33.766C21.2549 32.9536 22.3699 32.288 22.3928 32.288C22.4158 32.2834 22.4663 32.389 22.5076 32.5175C22.5489 32.646 22.6544 32.8434 22.7416 32.9628C22.8288 33.0775 22.9756 33.2198 23.0628 33.2749C23.15 33.3346 23.2876 33.4264 23.3611 33.486C23.4345 33.5411 23.6134 33.6146 23.7511 33.6467C23.8887 33.6788 24.0861 33.7064 24.187 33.7064C24.288 33.7064 24.4531 33.6834 24.5541 33.6559C24.655 33.6283 24.8799 33.509 25.0588 33.3988C25.2378 33.2841 25.3938 33.1647 25.4076 33.1372C25.4259 33.1097 25.4764 33.0362 25.6095 32.8664L26.3666 33.0638C26.7842 33.1693 27.4036 33.3621 27.7432 33.486C28.0828 33.6146 28.6013 33.7844 28.8904 33.8716C29.2162 33.968 29.6016 34.046 29.8999 34.0736C30.166 34.1011 30.7442 34.1195 31.1847 34.1241C31.6252 34.1241 32.0795 34.1424 32.1942 34.1562C32.4007 34.1883 32.4007 34.1883 32.4557 34.4408C32.4879 34.5785 32.6026 34.8401 32.7081 35.0146C32.8136 35.1936 33.0201 35.4506 33.1624 35.5883C33.3046 35.726 33.5616 35.9234 34.048 36.208L33.892 36.2218C33.8048 36.2309 33.5891 36.2172 33.4102 36.185C33.2312 36.1529 32.9467 36.0887 32.7678 36.0336C32.5888 35.9831 31.8087 35.7811 29.6016 35.2211L28.5921 35.1752C28.0369 35.1477 27.2706 35.1018 26.8943 35.0742C26.4997 35.0421 25.3984 35.0237 24.3017 35.0237C22.9848 35.0283 22.1496 35.0513 21.5944 35.1018C21.1539 35.1385 20.1719 35.1936 19.4148 35.2211C18.6577 35.2532 17.9097 35.267 17.4692 35.2441Z" fill="#025FB0"/>
<path d="M25.8984 18.5589C25.9442 18.4992 26.0498 18.4212 26.137 18.389C26.2241 18.3569 26.3893 18.334 26.5041 18.334C26.6371 18.3294 26.7794 18.3707 26.8941 18.4349C26.9996 18.4946 27.1098 18.6048 27.1556 18.6966C27.2015 18.7838 27.2658 18.9766 27.3071 19.1189C27.3438 19.2704 27.4218 19.4264 27.4814 19.4769C27.5365 19.5228 27.8806 19.7523 28.2477 19.9818C28.6148 20.2159 28.9452 20.4317 28.9819 20.4638C29.0186 20.4959 29.0966 20.6199 29.1563 20.7346C29.2297 20.8907 29.2848 20.9458 29.3628 20.9458C29.4178 20.9458 29.5876 20.9274 29.739 20.8999C29.8905 20.8769 30.019 20.8677 30.0281 20.8769C30.0327 20.8907 29.9731 20.932 29.8996 20.9687C29.8262 21.0054 29.6014 21.0513 29.4087 21.0651C29.1884 21.0835 28.9682 21.134 28.8443 21.1936C28.7341 21.2441 28.6057 21.3084 28.5598 21.3359C28.5001 21.368 28.4772 21.4369 28.4772 21.5654C28.4772 21.6664 28.4955 21.772 28.5139 21.7995C28.5322 21.8271 28.5873 21.873 28.6378 21.9005C28.6882 21.928 28.9177 21.9739 29.1425 22.0015C29.3674 22.0336 29.6289 22.0428 29.7161 22.029C29.8125 22.0107 29.9364 21.9418 30.019 21.85C30.1199 21.749 30.175 21.7215 30.1933 21.7582C30.2071 21.7903 30.2759 21.8408 30.3493 21.8684C30.4182 21.8959 30.6889 21.9372 30.955 21.9556C31.2854 21.9785 31.5745 22.0382 31.8865 22.1346C32.1297 22.2126 32.3775 22.2769 32.4372 22.2769C32.4922 22.2769 32.584 22.2494 32.6345 22.2172C32.6895 22.1897 32.7859 22.1208 32.8547 22.0703C32.9236 22.0198 32.9878 21.9923 32.997 22.0107C33.0107 22.0336 32.997 22.0887 32.974 22.1392C32.9511 22.1897 32.9327 22.2402 32.9419 22.2539C32.9465 22.2677 33.0153 22.2539 33.0888 22.231C33.1622 22.2035 33.2815 22.1254 33.3549 22.0566C33.4237 21.9877 33.4788 21.8959 33.4788 21.85C33.4788 21.8087 33.4283 21.7169 33.3687 21.6435C33.309 21.5746 33.231 21.4139 33.1943 21.29C33.153 21.1615 33.0933 20.9962 33.0566 20.9228C33.0153 20.8448 32.9144 20.73 32.8318 20.6658C32.7446 20.6015 32.5519 20.4776 32.4005 20.3903C32.1527 20.2481 32.093 20.2343 31.781 20.2389C31.5103 20.2435 31.368 20.2756 31.1156 20.3858C30.9367 20.4592 30.7118 20.5556 30.4273 20.6749L30.565 20.5556C30.6384 20.4959 30.8266 20.3812 30.978 20.3031C31.1294 20.2297 31.3772 20.1471 31.5286 20.1241C31.6984 20.092 31.8728 20.092 31.9875 20.1195C32.0884 20.1425 32.2628 20.1976 32.3775 20.2481C32.4922 20.294 32.6941 20.4087 33.0658 20.6703L33.2264 20.4867C33.3136 20.3858 33.4191 20.2343 33.4604 20.1517C33.5017 20.0736 33.5476 19.8717 33.5568 19.7064C33.566 19.5412 33.5843 19.3622 33.5981 19.3025C33.6073 19.2474 33.6623 19.1602 33.722 19.1097C33.777 19.0592 33.8872 19.0179 33.9606 19.0179C34.034 19.0179 34.1671 19.0592 34.2497 19.1097C34.3277 19.1602 34.4286 19.2612 34.4653 19.3392C34.5021 19.4126 34.5342 19.5963 34.5342 19.7385C34.5342 19.8992 34.5021 20.0644 34.4516 20.1608C34.4103 20.2481 34.3185 20.3628 34.1212 20.5097L33.6394 20.2985L33.5109 20.45C33.4421 20.5326 33.3411 20.6841 33.2907 20.7851C33.231 20.9044 33.2081 21.0192 33.2218 21.1064C33.2356 21.1799 33.3365 21.368 33.4467 21.5195C33.5568 21.671 33.7495 21.873 33.8826 21.9648C34.0157 22.0612 34.135 22.1851 34.1487 22.2402C34.1671 22.2998 34.1671 22.3779 34.1579 22.4146C34.1441 22.4513 34.0707 22.4972 33.9881 22.5156C33.9101 22.5385 33.6853 22.5385 33.4926 22.5248C33.2952 22.5064 33.0383 22.5064 32.919 22.5248C32.7951 22.5385 32.7079 22.5661 32.7171 22.5844C32.7262 22.6074 32.9052 22.6762 33.1163 22.7451C33.3274 22.8139 33.5889 22.9287 33.6945 22.9975C33.8 23.071 33.9835 23.25 34.0937 23.4015C34.2084 23.553 34.4057 23.8605 34.5296 24.09C34.6535 24.3149 34.8416 24.7097 34.9472 24.9621C35.0573 25.2146 35.2225 25.6369 35.3142 25.9031C35.4106 26.1693 35.5253 26.5595 35.5666 26.7752C35.6217 27.0461 35.64 27.271 35.5941 27.8539L35.8511 28.0146C35.9888 28.1018 36.2641 28.3451 36.4568 28.547C36.6495 28.7536 36.9019 29.0841 37.0166 29.2815C37.1359 29.4834 37.269 29.768 37.3195 29.9195C37.37 30.071 37.425 30.2637 37.4434 30.3418C37.4663 30.4749 37.4571 30.4978 37.37 30.5162C37.3103 30.5254 37.09 30.5575 36.8744 30.5851C36.6587 30.6126 36.4293 30.6447 36.232 30.6769L36.4752 30.9155C36.6082 31.0487 36.7918 31.2919 36.8836 31.4572C36.9753 31.6224 37.1084 31.9208 37.1772 32.1227C37.2782 32.4211 37.3057 32.5955 37.3241 33.0637C37.3378 33.5411 37.3287 33.7063 37.2461 34.0506C37.191 34.2801 37.0579 34.6381 36.9524 34.8539C36.8193 35.1201 36.6725 35.3313 36.4843 35.5195C36.3329 35.6709 36.1586 35.8362 36.0943 35.8867C36.0301 35.9372 35.8786 36.0244 35.7593 36.0794C35.64 36.1391 35.3831 36.2172 35.1903 36.2585C34.8921 36.3181 34.7728 36.3227 34.4653 36.2768C34.2634 36.2447 34.0065 36.1758 33.8918 36.1162C33.777 36.0565 33.5614 35.9188 33.41 35.804C33.2585 35.6939 33.0475 35.4873 32.9465 35.3542C32.841 35.2165 32.6941 34.9916 32.6161 34.8539C32.5335 34.7024 32.4509 34.4454 32.405 34.2113C32.3683 33.9955 32.3133 33.5641 32.2857 33.2473C32.2582 32.9306 32.2307 32.669 32.2261 32.6644C32.2215 32.6598 32.0104 32.6965 31.758 32.7424C31.5057 32.7883 31.0193 32.848 30.6797 32.8755C30.3402 32.9031 29.8583 32.926 29.6152 32.926C29.3674 32.926 28.7387 32.8939 28.2156 32.8572C27.6879 32.8159 26.94 32.7562 26.5499 32.7195L26.4848 32.7133C26.1228 32.6792 25.8188 32.6506 25.7928 32.6506C25.7653 32.6506 25.6643 32.7745 25.5634 32.9214C25.4257 33.1234 25.2927 33.2473 25.0357 33.408C24.8338 33.5365 24.5906 33.6467 24.4483 33.6788C24.2648 33.7155 24.1271 33.7155 23.8748 33.6696C23.6912 33.6375 23.4939 33.5732 23.4297 33.5227C23.3654 33.4722 23.2415 33.3942 23.1543 33.3437C23.0672 33.2978 22.9157 33.1693 22.8194 33.0591C22.723 32.949 22.5945 32.7424 22.5303 32.6047C22.4661 32.467 22.3789 32.2054 22.333 32.0218C22.2917 31.8382 22.2687 31.6775 22.2825 31.6637C22.2963 31.65 22.4477 31.6729 22.6267 31.7096C22.8056 31.7509 23.2461 31.8244 23.6132 31.8703C23.9803 31.9208 24.7007 31.9988 25.2192 32.0539C25.7378 32.1044 26.5224 32.1778 26.9629 32.2146C27.4034 32.2559 28.1606 32.288 28.6378 32.288C29.115 32.288 29.6473 32.2696 29.8216 32.2421C29.9914 32.2146 30.2254 32.1595 30.3493 32.1182C30.4686 32.0768 30.6338 31.9942 30.7164 31.9346C30.7944 31.8749 30.9091 31.7372 30.9596 31.627C31.0376 31.4755 31.0698 31.3057 31.0973 30.8146C31.1202 30.4749 31.1615 30.0388 31.1891 29.8506C31.2166 29.6624 31.29 29.3503 31.3542 29.1621C31.4139 28.9739 31.5378 28.6893 31.625 28.5287C31.7122 28.3726 31.8911 28.1339 32.0242 28.0008C32.1527 27.8631 32.3546 27.6979 32.4693 27.6244C32.584 27.551 32.7905 27.45 32.9281 27.3949C33.0964 27.3276 33.3411 27.2832 33.6623 27.2618C33.9285 27.2434 34.3506 27.1975 34.603 27.1608C35.0022 27.1057 35.0756 27.0782 35.172 26.968C35.2684 26.8579 35.2775 26.8165 35.2546 26.5457C35.2408 26.3805 35.1582 26.0454 35.0665 25.7884C34.9747 25.5359 34.7177 24.9575 34.4929 24.5031C34.1671 23.8467 34.0294 23.6172 33.8138 23.3877C33.6363 23.1919 33.4558 23.0496 33.2723 22.9608C33.1209 22.8874 32.841 22.791 32.6528 22.7497C32.4005 22.6992 32.1986 22.6854 31.8957 22.7038C31.6709 22.7221 31.3038 22.7864 31.0835 22.8507C30.8587 22.9149 30.5788 23.0159 30.4503 23.0802C30.3264 23.1444 30.1245 23.2821 30.0098 23.3877C29.8216 23.5621 29.7987 23.5713 29.8308 23.4703C29.8492 23.4061 29.9364 23.25 30.0235 23.1261C30.152 22.9379 30.1704 22.8736 30.1428 22.7635C30.1245 22.69 30.0511 22.5798 29.9822 22.5202C29.8583 22.4192 29.8354 22.4146 28.7754 22.4697L28.3166 22.1208L27.5824 22.153C27.1419 22.1713 26.7794 22.1667 26.6784 22.1392C26.5821 22.1117 26.4719 22.0612 26.4352 22.0244C26.3985 21.9877 26.3664 21.9051 26.3664 21.8408C26.3664 21.7674 26.4123 21.6894 26.4949 21.6297C26.5637 21.5792 26.7014 21.5149 26.8023 21.4874C26.9033 21.4599 27.3254 21.4139 27.743 21.3864C28.4772 21.3359 28.5001 21.3313 28.5139 21.2303C28.5185 21.1569 28.5873 21.0972 28.7754 21.0146C28.9865 20.9182 29.0232 20.8861 28.9865 20.8172C28.9636 20.7759 28.8856 20.6841 28.8121 20.6199C28.7433 20.5556 28.3625 20.2985 27.2612 19.6054L27.0317 19.7202C26.9079 19.7844 26.7151 19.8625 26.6096 19.8854C26.4995 19.913 26.3343 19.9222 26.2425 19.9038C26.1461 19.8854 26.0085 19.8166 25.9351 19.7523C25.8616 19.6881 25.7745 19.5641 25.7423 19.4769C25.7056 19.3897 25.6781 19.2474 25.6781 19.1648C25.6781 19.0867 25.7102 18.9399 25.7515 18.8435C25.7882 18.7517 25.8571 18.6231 25.8984 18.5589Z" fill="#020202"/>
<path d="M29.6289 24.6041C29.6243 24.3608 29.6519 24.0487 29.684 23.9156L29.739 23.6769L29.7712 24.0671C29.7849 24.2828 29.8308 24.572 29.8675 24.7097C29.9088 24.8474 30.0144 25.2008 30.1061 25.49C30.1979 25.7792 30.3126 26.1969 30.3631 26.4172C30.4136 26.6559 30.4503 26.991 30.4503 27.2342C30.4503 27.5877 30.409 27.8034 30.1796 28.7123C30.0281 29.2998 29.84 29.9792 29.762 30.2178C29.684 30.4565 29.5142 30.865 29.3903 31.1221C29.2114 31.4985 29.1425 31.5995 29.0645 31.6041C29.0049 31.6132 28.7617 31.6041 28.5231 31.5811C28.2844 31.5628 27.7384 31.5168 27.3071 31.4755C26.8757 31.4388 26.2792 31.3654 25.9764 31.3149C25.6735 31.269 25.2284 31.1772 24.9898 31.1129C24.7512 31.0532 24.4392 30.9569 24.3015 30.9064C24.1638 30.8559 23.9574 30.7641 23.8426 30.7044C23.7279 30.6447 23.4618 30.5621 23.2461 30.5208C23.0305 30.4749 22.7781 30.4198 22.6863 30.3969C22.5211 30.3555 22.5119 30.351 22.5624 30.227C22.5991 30.126 22.5945 30.0893 22.5257 30.0342C22.4798 29.9975 22.1265 29.7083 21.741 29.3916C21.1675 28.9234 21.039 28.7949 21.0436 28.7031C21.0436 28.6388 21.117 28.3818 21.1996 28.1293C21.2822 27.8769 21.4611 27.4546 21.5942 27.1883C21.7273 26.9221 21.9154 26.587 22.0118 26.4402C22.1127 26.2979 22.3743 26.0179 23.0121 25.467L23.0075 25.008C23.0075 24.6729 23.0259 24.5031 23.0809 24.3746C23.1222 24.2828 23.2094 24.168 23.2828 24.1267C23.393 24.0579 23.5306 24.0533 24.6686 24.0762C25.6873 24.0992 26.0131 24.1221 26.3664 24.2002C26.6325 24.2598 26.9262 24.3608 27.1235 24.4618C27.4355 24.627 27.4631 24.6316 28.0871 24.6638C28.6791 24.6913 28.7433 24.7005 28.9269 24.8152C29.0324 24.8841 29.1196 24.9529 29.1196 24.9713C29.1196 24.9943 29.2297 25.1366 29.372 25.2926C29.5096 25.4533 29.6381 25.5726 29.661 25.5634C29.6794 25.5543 29.6794 25.4349 29.661 25.2972C29.6473 25.1641 29.6289 24.852 29.6289 24.6041Z" fill="#020202"/>
<path fill-rule="evenodd" clip-rule="evenodd" d="M26.8384 9.97992C26.9485 9.97992 27.0082 9.99369 27.0082 10.0304C27.0082 10.0625 27.1045 10.7924 27.2193 11.6507C27.3386 12.5091 27.4533 13.2343 27.4762 13.2573C27.4992 13.2894 27.6965 13.2756 28.0544 13.2206C28.3481 13.1792 28.6326 13.1425 28.683 13.1425C28.7656 13.1425 28.784 13.1976 28.8528 13.7025C28.8987 14.0147 28.9171 14.2809 28.8987 14.2947C28.8803 14.3084 28.2838 14.4048 27.5726 14.5012C26.8613 14.6022 26.2694 14.671 26.2602 14.6573C26.2511 14.6435 26.1134 13.6842 25.9528 12.5229C25.7968 11.3616 25.6637 10.3517 25.6545 10.136L26.1593 10.0625C26.4392 10.0212 26.742 9.98451 26.8338 9.97992H26.8384ZM49.8413 29.8965L49.8825 31.0762C49.9147 32.1044 49.9101 32.2926 49.8458 32.5129C49.8091 32.6506 49.7311 32.8342 49.6807 32.9169C49.6302 32.9949 49.5017 33.128 49.3916 33.206C49.286 33.2795 49.0841 33.3759 48.9465 33.4172C48.7996 33.4585 48.5151 33.4906 48.2582 33.4906C47.9599 33.4952 47.7351 33.4677 47.5469 33.4126C47.3542 33.3529 47.2074 33.2657 46.8586 32.9352L46.1336 33.2978C45.739 33.4952 45.404 33.6467 45.3949 33.6283C45.3857 33.6054 45.3719 33.2703 45.3444 32.1732L45.9868 31.8932C46.6109 31.6224 46.6292 31.6087 46.6521 31.3195L45.3306 31.3883L45.3031 30.6998C45.2847 30.3234 45.2756 30.0067 45.2847 30.0021C45.2939 29.9975 46.0006 29.9746 46.8586 29.9516C47.7167 29.9287 48.74 29.9057 49.8413 29.8965ZM47.7993 31.3195C47.8406 31.6592 47.859 31.8014 47.8727 31.8611C47.8819 31.9162 47.9416 31.9851 48.0058 32.008C48.0746 32.0355 48.2169 32.0401 48.3545 32.0218C48.483 31.9988 48.6069 31.9667 48.6253 31.9391C48.6436 31.9162 48.6712 31.8106 48.6849 31.7096C48.6987 31.6087 48.6987 31.471 48.6803 31.3975C48.6528 31.2919 48.6253 31.2736 48.5105 31.2828C48.4371 31.2874 48.2444 31.2965 48.0838 31.3057L47.7993 31.3195ZM13.0954 30.3556C13.1321 30.3556 13.1551 30.5759 13.178 31.0762C13.1918 31.4755 13.1872 31.8152 13.1688 31.829C13.1505 31.8428 12.8522 31.9805 12.5035 32.1273C11.9116 32.3798 11.8703 32.4073 11.8703 32.6506H13.178L13.2147 33.0959C13.2331 33.3437 13.2469 33.6467 13.2514 34.0047L11.7005 34.0414C10.847 34.0598 9.81914 34.0919 8.67198 34.1424L8.63986 32.926C8.60774 31.7785 8.61233 31.6913 8.69951 31.4113C8.75916 31.2231 8.85094 31.0533 8.9473 30.9523C9.03448 30.8651 9.19509 30.7457 9.30521 30.6906C9.41993 30.6401 9.63101 30.5713 9.78243 30.5437C9.93386 30.5162 10.1679 30.4933 10.3009 30.4933C10.434 30.4933 10.6497 30.5162 10.7828 30.5437C10.9158 30.5713 11.104 30.6356 11.2049 30.6906C11.3059 30.7411 11.4527 30.8467 11.6638 31.0808L12.3521 30.7182C12.7329 30.5208 13.0679 30.3556 13.0954 30.3556ZM9.84208 32.2513C9.82832 32.3569 9.82832 32.4991 9.83749 32.568L9.85126 32.6965H10.7231C10.6818 32.2467 10.6359 32.086 10.5946 32.0401C10.5396 31.9805 10.457 31.9621 10.2872 31.9621C10.1633 31.9667 10.0165 31.9896 9.96139 32.0172C9.89256 32.0493 9.85585 32.1182 9.84208 32.2513ZM22.3415 32.1962C22.3553 32.1916 22.3645 32.2191 22.3599 32.2467C22.3553 32.2788 21.254 32.9673 17.473 35.2441L17.7575 35.2578C17.9181 35.267 18.6614 35.2486 19.4186 35.2211C20.1757 35.1936 21.1577 35.1385 21.5982 35.1018C22.158 35.0513 22.9931 35.0283 24.3055 35.0237C25.4067 35.0191 26.5034 35.0421 26.8981 35.0742C27.2789 35.1018 28.0314 35.1477 29.5595 35.2165L30.9819 35.5654C31.7666 35.7581 32.4365 35.9326 32.4733 35.9555C32.5237 35.9831 32.4687 35.9968 32.0603 36.0014L31.3169 36.8231C30.9085 37.2729 30.5552 37.6309 30.5368 37.6126C30.5185 37.5988 30.5598 37.2362 30.6286 36.8093C30.7066 36.3227 30.7387 36.029 30.7066 36.0198C30.6837 36.006 30.4359 36.006 29.6604 36.0244L29.3484 37.9752C29.1786 39.0493 29.0364 39.9719 29.0364 40.027C29.0364 40.1325 29.0409 40.1326 30.1101 40.1096L30.2478 39.2467C30.3258 38.7739 30.3992 38.3883 30.4084 38.3883C30.4221 38.3837 30.6791 38.7785 31.5326 40.1326H33.8498L34.2399 39.3522H35.6853L35.7587 39.6827C35.7954 39.8663 35.8275 40.0453 35.8275 40.0729C35.8275 40.1188 35.9698 40.1326 36.3965 40.1326C36.9242 40.1326 36.9701 40.1234 36.9518 40.0499C36.938 40.0086 36.7407 39.0814 36.5113 37.9981C36.2818 36.9103 36.0707 36.0106 36.0386 35.9922C36.0019 35.9647 36.0019 35.9555 36.0432 35.9555C36.0753 35.9555 36.213 35.8362 36.3552 35.6893C36.4929 35.547 36.681 35.3129 36.7774 35.1752C36.8692 35.0375 36.9885 34.8172 37.0435 34.6932C37.0986 34.5647 37.1812 34.3306 37.2271 34.1654C37.2684 34.0001 37.3189 33.6696 37.3326 33.4309C37.351 33.1923 37.3785 32.9949 37.4015 32.9949C37.4198 32.9949 38.7826 33.8073 40.43 34.8034C42.0727 35.7995 43.5273 36.6945 43.6604 36.7909C43.7934 36.8873 43.9632 37.0526 44.0412 37.1581C44.1192 37.2683 44.211 37.4565 44.2523 37.585C44.3074 37.7686 44.3074 37.8558 44.2661 38.0211C44.2385 38.1358 44.1651 38.3011 44.1055 38.3883C44.0458 38.4755 43.9081 38.6132 43.8026 38.6912C43.6925 38.7693 40.7328 40.5686 37.2225 42.6847C33.7168 44.8053 30.7433 46.5817 30.6149 46.6368C30.491 46.6919 30.3028 46.7653 30.2019 46.7974C30.0872 46.8342 29.7705 46.8571 29.3071 46.8571C28.7656 46.8571 28.527 46.8387 28.2976 46.7745C28.137 46.7286 27.8892 46.646 27.747 46.5909C27.6093 46.5312 24.7827 44.8466 21.4605 42.8407C18.1429 40.8394 15.275 39.0998 15.0823 38.9804C14.8942 38.8611 14.6556 38.6729 14.55 38.5627C14.4445 38.4526 14.3114 38.2735 14.2564 38.1588C14.1875 38.0257 14.1508 37.8696 14.1508 37.7227C14.1508 37.5575 14.1829 37.429 14.2747 37.2729C14.3435 37.1535 14.4996 36.9791 14.628 36.8827C14.7565 36.7909 16.5369 35.6985 18.588 34.4545C20.6346 33.2152 22.3232 32.2008 22.3415 32.1962ZM25.7968 32.6506C25.8243 32.6506 26.1639 32.6828 26.5585 32.7195C26.9485 32.7562 27.6965 32.8159 28.2196 32.8572C28.7427 32.8939 29.3713 32.926 29.6191 32.926C29.8669 32.926 30.3441 32.9031 30.6837 32.8755C31.0278 32.848 31.5096 32.7883 31.762 32.7424C32.0144 32.6965 32.2255 32.6598 32.2346 32.6644C32.2392 32.669 32.2622 32.9214 32.2897 33.2244C32.3172 33.5273 32.3494 33.8578 32.3907 34.1424L31.4362 34.1286C30.9085 34.1241 30.2432 34.0965 29.9495 34.0736C29.587 34.0414 29.2612 33.9818 28.8941 33.8716C28.605 33.7844 28.0911 33.6146 27.747 33.486C27.4074 33.3621 26.8017 33.1693 26.3933 33.0637C25.9895 32.9582 25.6545 32.8618 25.6499 32.8526C25.6454 32.8434 25.6637 32.7929 25.6912 32.7424C25.7234 32.6919 25.7692 32.6506 25.7968 32.6506ZM33.3451 36.1621C33.3818 36.185 33.5699 36.2034 33.7581 36.2126C33.9508 36.2218 34.2123 36.2355 34.584 36.2768L33.6663 38.1221C33.134 39.187 32.7302 39.9535 32.7073 39.926C32.6889 39.8985 32.3952 39.467 31.4546 38.044L32.3539 37.149C32.8495 36.6578 33.2579 36.2263 33.2625 36.1896C33.2671 36.1529 33.2946 36.1391 33.3451 36.1621Z" fill="#0972CE"/>
<path d="M26.0999 18.5773C26.155 18.5222 26.2376 18.4671 26.2743 18.4533C26.311 18.4396 26.389 18.4258 26.4441 18.4258C26.5037 18.4212 26.6047 18.4441 26.6735 18.4717C26.7469 18.4992 26.8479 18.5635 26.9029 18.6186C26.958 18.6737 26.9947 18.7333 26.9855 18.7563C26.9718 18.7746 26.8846 18.7655 26.7882 18.7379C26.6964 18.7104 26.5221 18.692 26.4028 18.7012C26.2468 18.715 26.155 18.7517 26.0586 18.8481C25.9898 18.9169 25.9164 18.9582 25.898 18.9399C25.8797 18.9169 25.8934 18.8527 25.9255 18.7884C25.9623 18.7241 26.0403 18.6278 26.0999 18.5773Z" fill="#F6FEF6"/>
<path d="M30.7253 20.6566C30.8124 20.6015 31.0189 20.5235 31.1841 20.4822C31.3493 20.4363 31.5191 20.3995 31.565 20.3995C31.6246 20.395 31.6384 20.4225 31.6155 20.5235C31.6017 20.5923 31.5696 20.6658 31.5466 20.6933C31.5191 20.7209 31.2759 20.7851 31.0098 20.8356C30.739 20.8907 30.505 20.9274 30.4821 20.9182C30.4637 20.9091 30.4775 20.8677 30.505 20.8264C30.5371 20.7851 30.6381 20.7071 30.7253 20.6566Z" fill="#F6FEF6"/>
<path d="M26.6322 21.6297C26.6643 21.593 26.8203 21.5517 26.9763 21.5379C27.1324 21.5195 27.4398 21.5058 27.6646 21.5012C27.9032 21.5012 28.0639 21.515 28.0639 21.5425C28.0639 21.57 28.0271 21.6022 27.9858 21.6159C27.94 21.6297 27.605 21.6527 27.2379 21.6664C26.6735 21.6894 26.5817 21.6802 26.6322 21.6297Z" fill="#F6FEF6"/>
<path d="M33.5748 24.2185C33.093 23.553 32.6984 23.0022 32.6984 22.9884C32.6984 22.9746 32.7534 22.9654 32.8223 22.9654C32.8957 22.9654 33.0333 23.0067 33.1343 23.0481C33.2352 23.094 33.3959 23.2041 33.4968 23.2913C33.5932 23.3786 33.74 23.5392 33.8226 23.654C33.9098 23.7687 34.0612 24.0166 34.1667 24.2048C34.2723 24.393 34.4099 24.673 34.4742 24.8244L34.4844 24.8503C34.5452 25.0048 34.6426 25.2519 34.699 25.4212C34.7587 25.6002 34.7954 25.7562 34.7724 25.7792C34.7541 25.7976 34.6761 25.7241 34.5935 25.6185C34.5155 25.5084 34.052 24.8795 33.5748 24.2185Z" fill="#F6FEF6"/>
<path d="M31.0098 23.2179C31.0694 23.1812 31.2071 23.1215 31.3218 23.0848C31.4365 23.0481 31.5925 23.0159 31.6659 23.0159C31.7898 23.0113 31.8174 23.0389 31.9504 23.3097C32.033 23.4749 32.189 23.8422 32.29 24.1267C32.3955 24.4067 32.5515 24.8566 32.6341 25.1228C32.7167 25.389 32.8177 25.7379 32.8544 25.9031C32.8957 26.0684 32.9278 26.2428 32.9278 26.2933C32.9278 26.3713 32.9049 26.3576 32.7902 26.2244C32.7121 26.1372 32.446 25.8067 32.1982 25.49C31.9504 25.1733 31.62 24.7189 31.4594 24.4802C31.3034 24.2415 31.1153 23.9202 31.0419 23.7687C30.9685 23.6172 30.9088 23.4474 30.9088 23.3923C30.9088 23.3326 30.9547 23.2546 31.0098 23.2179Z" fill="#F6FEF6"/>
<path d="M29.4634 27.6015C29.4496 27.5648 29.4634 27.5051 29.4909 27.4775C29.5185 27.4454 29.5919 27.4179 29.7662 27.4179L29.7479 28.0972C29.7387 28.469 29.7066 28.8362 29.6745 28.9097C29.6332 29.0198 29.6102 29.0382 29.5643 28.9877C29.5276 28.9464 29.5047 28.7169 29.4955 28.2992C29.4909 27.9549 29.4772 27.6382 29.4634 27.6015Z" fill="#F6FEF6"/>
<path d="M33.7584 31.5949C33.6574 31.3057 33.5748 31.0303 33.5702 30.989C33.5702 30.9431 33.5748 30.9064 33.5794 30.9064C33.5886 30.9064 33.662 30.9247 33.74 30.9523C33.8868 30.9982 33.896 31.0165 34.1392 31.7923C34.2769 32.2238 34.4099 32.6644 34.4375 32.7654C34.465 32.8664 34.4879 33.0316 34.4879 33.1326C34.4879 33.2336 34.4696 33.3483 34.4421 33.3851C34.4191 33.4218 34.3916 33.4447 34.3824 33.431C34.3686 33.4172 34.2677 33.1188 34.153 32.7654C34.0383 32.4119 33.8593 31.8841 33.7584 31.5949Z" fill="#F6FEF6"/>
<path d="M35.502 31.067L35.6948 31.0395C35.8003 31.0257 35.9701 31.0074 36.071 31.0074C36.227 31.0028 36.2775 31.0257 36.4152 31.1726C36.5024 31.269 36.6538 31.4893 36.7456 31.6638C36.8373 31.8428 36.952 32.1182 36.9933 32.2834C37.0484 32.4854 37.0714 32.747 37.0714 33.0867C37.0714 33.4906 37.0484 33.6605 36.9612 33.9359C36.897 34.1241 36.7777 34.3903 36.6905 34.528C36.6033 34.6657 36.4381 34.8585 36.3234 34.9549C36.2087 35.0513 36.1031 35.1339 36.0802 35.1293C36.0618 35.1293 36.0481 35.1155 36.0481 35.0972C36.0481 35.0742 36.0848 34.9273 36.1353 34.7621C36.1857 34.5969 36.2592 34.3306 36.3005 34.1654C36.3463 34.0001 36.3968 33.7523 36.4152 33.6146C36.4335 33.4769 36.4289 33.1923 36.4106 32.9857C36.3876 32.7746 36.3188 32.4762 36.2592 32.3201C36.1995 32.1595 36.0848 31.9162 35.9976 31.7785C35.915 31.6408 35.7682 31.4251 35.502 31.067Z" fill="#F6FEF6"/>
<path d="M35.1212 32.467C35.0569 32.2788 34.9422 31.9529 34.8642 31.7464C34.7862 31.5352 34.7403 31.3654 34.7633 31.3654C34.7908 31.3654 34.8963 31.4434 35.0019 31.5444C35.112 31.6408 35.2634 31.8428 35.346 31.9897C35.424 32.1411 35.525 32.3844 35.5663 32.5359C35.603 32.6874 35.6351 32.9995 35.6397 33.2244C35.6397 33.4585 35.6076 33.7569 35.5663 33.9129C35.525 34.0644 35.4378 34.3031 35.3736 34.4408C35.3047 34.5785 35.1854 34.7667 35.1028 34.8539C35.0248 34.9411 34.8872 35.0513 34.7954 35.0972C34.699 35.1385 34.5476 35.1752 34.4512 35.1752C34.3411 35.1798 34.2172 35.1339 34.0979 35.0559C33.997 34.987 33.8777 34.886 33.8318 34.8355C33.7859 34.7805 33.6895 34.6106 33.6115 34.4546C33.5381 34.2939 33.4922 34.1516 33.506 34.1332C33.5197 34.1103 33.5978 34.17 33.6758 34.2618C33.7584 34.349 33.8639 34.4546 33.9098 34.4913C33.9603 34.528 34.0841 34.5693 34.1851 34.5831C34.2906 34.6014 34.4558 34.5877 34.5522 34.5601C34.6531 34.5326 34.7954 34.4408 34.878 34.349C34.956 34.2618 35.0707 34.0644 35.1304 33.9129C35.213 33.6926 35.2359 33.5503 35.2359 33.2244C35.2359 32.9077 35.2084 32.7287 35.1212 32.467Z" fill="#F6FEF6"/>
<path d="M23.6771 32.5497C23.6404 32.4762 23.6083 32.4165 23.6037 32.4074C23.5991 32.3982 23.7046 32.4074 23.8423 32.4257C23.98 32.4441 24.1406 32.4624 24.2002 32.4624C24.2675 32.4655 24.2981 32.4915 24.292 32.5405C24.2828 32.5818 24.2232 32.6598 24.1543 32.7149C24.0396 32.8067 24.0213 32.8067 23.8836 32.7424C23.8056 32.7057 23.7092 32.6185 23.6771 32.5497Z" fill="#F6FEF6"/>
<path d="M26.6276 36.1988C26.7194 36.1254 26.9029 36.0336 27.0268 35.9923C27.1553 35.9464 27.3756 35.9142 27.5132 35.9096C27.6509 35.9096 27.8711 35.9372 27.995 35.9693C28.1235 36.006 28.3346 36.0932 28.4722 36.1667C28.6053 36.2401 28.7338 36.3273 28.7567 36.3595C28.7843 36.3962 28.743 36.5109 28.6328 36.7037C28.5411 36.8598 28.4355 37.0342 28.3392 37.1949L28.1923 37.0847C28.1097 37.0204 27.9629 36.9378 27.8711 36.9011C27.7748 36.8598 27.6417 36.8277 27.5729 36.8277C27.4994 36.8277 27.4123 36.8552 27.371 36.8873C27.3297 36.9195 27.2746 36.9929 27.2425 37.0572C27.192 37.1536 27.1966 37.1857 27.27 37.2821C27.3159 37.3418 27.5086 37.4749 27.6968 37.585C27.8849 37.6906 28.1327 37.8604 28.2428 37.9568C28.3575 38.0578 28.486 38.2185 28.5319 38.3195C28.5824 38.4342 28.6145 38.6132 28.6145 38.7922C28.6145 38.9621 28.5778 39.1732 28.5273 39.3201C28.4631 39.4899 28.3667 39.6276 28.1877 39.7883C28.0547 39.9168 27.839 40.0545 27.7151 40.105C27.5912 40.1509 27.3067 40.1968 27.0773 40.2106C26.7561 40.2335 26.6093 40.2198 26.4119 40.1555C26.2743 40.1096 26.0586 40.004 25.9301 39.9214C25.8062 39.8388 25.6548 39.724 25.4896 39.5588L26.0678 38.7188L26.2422 38.8749C26.3339 38.9621 26.4991 39.0722 26.6093 39.1273C26.7148 39.1824 26.8937 39.2237 27.0085 39.2283C27.1232 39.2283 27.2608 39.2054 27.3205 39.1778C27.3756 39.1457 27.4398 39.0722 27.4673 39.008C27.4979 38.9315 27.4979 38.855 27.4673 38.7785C27.4398 38.7142 27.293 38.5857 27.1369 38.4847C26.9763 38.3837 26.7377 38.2368 26.6047 38.1496C26.4716 38.067 26.3064 37.9155 26.2376 37.8191C26.1458 37.6814 26.1091 37.5713 26.0953 37.3601C26.0907 37.2041 26.1091 36.9883 26.1412 36.8736C26.1779 36.7588 26.2605 36.589 26.3293 36.4972C26.4028 36.4008 26.5358 36.2677 26.6276 36.1988Z" fill="#F6FEF6"/>
<path d="M18.6342 38.09C18.7994 37.0572 18.9462 36.1575 18.9646 36.0978L18.9921 35.9923L19.9144 36.0106C20.6991 36.029 20.8735 36.0473 21.0891 36.13C21.2589 36.1942 21.4011 36.2906 21.525 36.4237C21.626 36.5385 21.7361 36.7175 21.7728 36.8323C21.8095 36.9562 21.8279 37.1719 21.8141 37.4014C21.8004 37.7044 21.7728 37.8145 21.6581 38.0211C21.5801 38.1588 21.4287 38.3424 21.3231 38.425C21.2222 38.5031 21.057 38.5949 20.9606 38.6224C20.8689 38.6454 20.5293 38.6821 19.6299 38.7326L19.4143 40.1096L18.8728 40.1234C18.3864 40.1326 18.3359 40.1234 18.3359 40.0545C18.3359 40.0086 18.469 39.1227 18.6342 38.09Z" fill="#F6FEF6"/>
<path d="M21.1809 40.128L22.2133 38.0624L23.2458 35.9968H23.9341C24.3149 35.9968 24.6224 36.0152 24.627 36.0336C24.627 36.0519 24.8105 36.947 25.0399 38.0165C25.2694 39.0906 25.4621 40.004 25.4759 40.0499C25.4942 40.1234 25.4437 40.128 24.9206 40.128C24.4939 40.128 24.3471 40.1142 24.3471 40.0729C24.3516 40.0408 24.3195 39.8663 24.2094 39.3476H22.764L22.3739 40.128H21.1809Z" fill="#F6FEF6"/>
<path d="M37.544 38.0395C37.7092 36.9791 37.856 36.0886 37.8652 36.0565C37.879 36.0152 38.035 35.9968 38.9848 35.9968L38.9619 36.1254C38.9481 36.1942 38.838 36.8965 38.7095 37.686C38.5856 38.4755 38.4801 39.1319 38.4801 39.1411C38.4801 39.1549 38.7829 39.164 39.8108 39.164V39.2926C39.8062 39.3614 39.7786 39.5726 39.6961 40.105L38.4709 40.1188C37.3283 40.128 37.2411 40.1234 37.2411 40.0499C37.2457 40.004 37.3788 39.0998 37.544 38.0395Z" fill="#F6FEF6"/>
<path d="M22.7823 25.9353C23.0347 25.6966 23.2595 25.5176 23.3513 25.4946H23.3467C23.4293 25.4717 23.5807 25.4487 23.6817 25.4487C23.7826 25.4487 24.0075 25.4854 24.1864 25.5313C24.3654 25.5772 24.6086 25.6553 24.7371 25.7057C24.861 25.7562 25.1225 25.8756 25.3107 25.972C25.4988 26.0684 26.0494 26.3621 26.5267 26.6284C27.0039 26.8946 27.5132 27.1562 27.6509 27.2113C27.7885 27.2664 27.9858 27.3261 28.0868 27.3444C28.1877 27.3674 28.5089 27.3995 28.798 27.4225C29.0871 27.4408 29.3303 27.4638 29.3395 27.473C29.3441 27.4821 29.3716 27.6933 29.4037 27.9457C29.4404 28.2808 29.4404 28.5149 29.4037 28.8179C29.3808 29.0428 29.3257 29.3228 29.2844 29.4375C29.2431 29.5523 29.1651 29.7084 29.1055 29.791C29.0504 29.8736 28.9495 29.97 28.876 30.0067C28.8072 30.048 28.6741 30.0802 28.5778 30.0802C28.4447 30.0847 28.3621 30.0434 28.2015 29.9057C28.0868 29.8093 27.9445 29.6257 27.8849 29.5018C27.8207 29.3779 27.7426 29.1713 27.7105 29.0474C27.6784 28.9188 27.6371 28.6021 27.6188 28.3359C27.5958 27.8998 27.5866 27.8631 27.527 27.9457C27.4903 27.9962 27.4031 28.1523 27.3343 28.29C27.2654 28.4277 27.1828 28.6343 27.1507 28.749C27.114 28.8775 27.1002 29.1116 27.114 29.3687C27.1278 29.69 27.1737 29.9011 27.3205 30.3326C27.4214 30.6356 27.5178 30.9201 27.5316 30.9615C27.5545 31.0349 27.5362 31.0395 27.3618 31.0165C27.2562 31.0028 27.0635 30.9706 26.9396 30.9431C26.8112 30.9156 26.568 30.8283 26.389 30.7457C26.21 30.6677 25.8934 30.4841 25.6778 30.3464C25.4621 30.2087 25.1088 29.9516 24.8931 29.7772C24.6728 29.6028 24.214 29.1897 23.8652 28.8638C23.4064 28.4323 23.1632 28.1569 22.975 27.8723C22.8328 27.6566 22.6906 27.4408 22.6584 27.3903C22.608 27.3169 22.6034 27.3307 22.6217 27.5097C22.6355 27.6244 22.7227 27.8677 22.819 28.0513C22.9154 28.2395 23.2733 28.7582 23.6129 29.2126C23.9524 29.667 24.2232 30.048 24.2094 30.0572C24.1956 30.071 23.9983 30.0159 23.7735 29.9333C23.5486 29.8506 22.9062 29.5569 21.3415 28.772L21.3277 28.5425C21.3231 28.4139 21.3461 28.189 21.3874 28.0375C21.4287 27.8861 21.5388 27.6107 21.6306 27.4225C21.7224 27.2389 21.9288 26.9175 22.0803 26.711C22.2363 26.509 22.5483 26.1602 22.7823 25.9353Z" fill="#F8D10D"/>
<path d="M33.6758 27.9366C33.7079 27.9044 33.818 27.8585 33.919 27.8356C34.0199 27.808 34.2998 27.7989 34.5384 27.808C34.777 27.8172 35.0982 27.8677 35.2497 27.9136C35.4011 27.9595 35.6489 28.0834 35.8003 28.1844C35.9517 28.29 36.149 28.4507 36.2408 28.5516C36.3326 28.648 36.4978 28.85 36.6079 29.0015C36.718 29.1529 36.8878 29.4329 36.9796 29.6211C37.0759 29.8093 37.1677 30.0388 37.209 30.2867L36.5253 30.3234C36.1536 30.3418 35.291 30.3372 34.6073 30.3142C33.9235 30.2867 33.1664 30.25 32.914 30.2316C32.5745 30.2041 32.4552 30.1765 32.4368 30.1261C32.4231 30.0893 32.4368 29.869 32.4644 29.6441C32.4965 29.3779 32.5653 29.0979 32.6663 28.85C32.8085 28.492 32.8269 28.469 32.9553 28.4736C33.0288 28.4736 33.2582 28.5241 33.4601 28.5884C33.662 28.6572 33.9832 28.7903 34.1713 28.8959C34.3595 28.9969 34.6027 29.1392 34.7082 29.2126C34.8183 29.2861 34.9055 29.332 34.9055 29.309C34.9055 29.2906 34.7633 29.1025 34.5935 28.8867C34.4191 28.671 34.2034 28.4277 34.1117 28.3451C34.0199 28.267 33.8685 28.1615 33.7813 28.1156C33.6895 28.0743 33.6161 28.0284 33.6161 28.0146C33.6161 28.0008 33.6436 27.9687 33.6758 27.9366Z" fill="#F8D10D"/>
<path fill-rule="evenodd" clip-rule="evenodd" d="M33.0568 10.113C33.0751 10.113 33.4514 10.2278 33.8919 10.3655C34.3324 10.5078 34.7041 10.6317 34.7179 10.6455C34.7316 10.6593 34.6995 11.1917 34.6444 11.8252C34.594 12.4632 34.5527 12.9865 34.5527 12.9911C34.5573 13.0002 34.8096 12.5642 35.1217 12.0271C35.4291 11.4947 35.6998 11.0265 35.7182 10.9989C35.7411 10.9576 35.9614 11.0081 36.5763 11.1963C37.0305 11.334 37.4114 11.4579 37.4252 11.4717C37.4389 11.4809 37.2049 12.477 36.902 13.6842C36.6038 14.8868 36.356 15.8783 36.3514 15.8874C36.3514 15.8966 36.0486 15.814 35.6861 15.7038C35.3236 15.5937 35.0207 15.4835 35.0115 15.4606C35.0023 15.4376 35.1171 14.9602 35.2639 14.4048C35.4153 13.8494 35.5346 13.3904 35.53 13.3858C35.5255 13.3812 35.2731 13.8035 34.9702 14.3222C34.6674 14.8409 34.4058 15.2724 34.3875 15.2815C34.3645 15.2907 34.1397 15.2356 33.8827 15.1576C33.6212 15.075 33.4055 15.0107 33.4009 15.0061C33.3963 15.0061 33.4193 14.5471 33.4606 13.9917C33.4973 13.4363 33.5248 12.9497 33.5156 12.913C33.5065 12.8763 33.3504 13.2848 33.1669 13.8219C32.9742 14.3956 32.8136 14.795 32.7814 14.795C32.7493 14.795 32.4373 14.7078 32.0886 14.5976C31.7444 14.492 31.4599 14.3956 31.4599 14.3819C31.4599 14.3681 31.8087 13.4088 32.24 12.2475C32.6713 11.0861 33.0201 10.1314 33.0201 10.1222C33.0201 10.1176 33.0338 10.113 33.0568 10.113V10.113ZM21.7595 11.3202C21.7917 11.3248 22.48 12.1327 24.7651 14.9097L24.1548 15.2173C23.8198 15.3871 23.5262 15.5248 23.4986 15.5248C23.4757 15.5294 23.3564 15.4055 23.0168 14.9786L22.5625 15.1943C22.3148 15.3183 22.0991 15.4238 22.0853 15.4376C22.0716 15.4514 22.0991 15.6166 22.145 15.8048C22.1955 15.993 22.2368 16.1491 22.2368 16.1491C22.2368 16.1491 21.9477 16.2914 21.5989 16.4704C21.2456 16.6448 20.9473 16.7825 20.9382 16.7687C20.9244 16.755 20.6858 15.7222 20.4059 14.4737C20.1214 13.2252 19.9103 12.197 19.9287 12.1878C19.947 12.1786 20.36 11.9812 20.8372 11.7425C21.319 11.5084 21.732 11.3157 21.7595 11.3202ZM21.5989 13.6566C21.6769 13.9688 21.7458 14.2258 21.7595 14.2304C21.7687 14.2396 21.8834 14.1983 22.0073 14.1386C22.1358 14.0835 22.2413 14.0284 22.2413 14.0147C22.2413 14.0009 22.0624 13.7622 21.8467 13.4868C21.6311 13.2068 21.4567 13.0094 21.4567 13.037C21.4567 13.0691 21.5209 13.3491 21.5989 13.6566ZM40.8437 13.9733C41.0318 13.9733 41.2016 14.0055 41.3714 14.0743C41.509 14.1294 41.7568 14.2763 41.922 14.391C42.0872 14.5104 42.2937 14.6848 42.3855 14.7812C42.4772 14.8776 42.6241 15.0566 42.7113 15.1851C42.7985 15.3091 42.8948 15.5294 42.9223 15.6671C42.9682 15.8599 42.9682 15.9792 42.9269 16.172C42.8994 16.3097 42.8076 16.5668 42.725 16.7458C42.6424 16.9202 42.4635 17.2094 42.3304 17.3884C42.1973 17.5628 41.922 17.875 41.7155 18.0769C41.4632 18.3248 41.2383 18.4946 41.0272 18.6048C40.784 18.7287 40.6418 18.77 40.4078 18.7792C40.215 18.793 40.0361 18.77 39.903 18.7241C39.7883 18.6828 39.5864 18.5818 39.4533 18.5038C39.3157 18.4212 39.0908 18.2468 38.9486 18.1182C38.8017 17.9897 38.5998 17.751 38.4897 17.5904C38.3796 17.4205 38.2741 17.2002 38.2465 17.0671C38.2144 16.911 38.2144 16.7642 38.2511 16.6081C38.2786 16.4796 38.3337 16.2868 38.375 16.172C38.4163 16.0573 38.5402 15.8324 38.6457 15.6671C38.7559 15.5019 38.9853 15.2127 39.1551 15.0199C39.3248 14.8271 39.5497 14.5976 39.6506 14.5104C39.7516 14.4232 39.9168 14.3038 40.0177 14.2396C40.1187 14.1799 40.2839 14.0973 40.3848 14.056C40.4858 14.0101 40.6923 13.9779 40.8437 13.9733ZM40.0866 16.1766L39.4809 16.8835C39.8617 17.2278 40.0223 17.3563 40.0866 17.3884C40.1554 17.4251 40.2472 17.4389 40.3114 17.4205C40.3802 17.4022 40.6785 17.0855 41.0594 16.6402C41.4081 16.2317 41.6834 15.8737 41.6696 15.8507C41.6559 15.8232 41.5228 15.6992 41.3714 15.5753C41.1832 15.4192 41.0548 15.3458 40.9722 15.3458C40.8988 15.3458 40.8116 15.3733 40.7657 15.4055C40.7244 15.4376 40.4215 15.7865 40.0866 16.1766ZM17.0195 14.0651C17.0378 14.0606 17.226 14.2533 17.8362 14.9097L17.1434 15.5983L17.7261 16.2133C18.0519 16.553 18.5658 17.0992 19.4377 18.031L19.1486 18.3202C18.9926 18.4809 18.7723 18.692 18.4511 18.972L17.4875 17.953C16.9598 17.393 16.4413 16.8422 16.1476 16.5163L15.4226 17.1864L15.0326 16.7642C14.8169 16.5301 14.6426 16.3281 14.6426 16.3143C14.6426 16.3005 15.1702 15.7865 15.8127 15.176C16.4551 14.5655 16.9965 14.0651 17.0195 14.0651ZM45.3176 17.9668C45.3314 17.9622 45.7306 18.5635 46.2124 19.3025C46.6942 20.0369 47.0888 20.6658 47.098 20.6979C47.1026 20.7346 46.9053 20.8953 46.6483 21.0605C46.3959 21.2258 46.1757 21.3589 46.1527 21.3589C46.1344 21.3589 46.0059 21.1845 45.6159 20.5831L44.2393 21.4828C43.4822 21.9786 42.8397 22.3871 42.8168 22.3963C42.7939 22.4054 42.6103 22.1622 42.413 21.8546C42.1239 21.4002 42.0643 21.2808 42.1147 21.2349C42.1469 21.2074 42.7526 20.8081 43.4592 20.3491C44.1659 19.89 44.767 19.4907 44.7991 19.4586C44.8404 19.4218 44.7945 19.3163 44.6018 19.0179C44.4595 18.8022 44.3632 18.614 44.3861 18.5956C44.4045 18.5773 44.6201 18.4258 44.8587 18.2651C45.0974 18.0999 45.3038 17.9668 45.3176 17.9668ZM12.7887 18.513C12.8117 18.513 13.6973 19.0225 14.7573 19.6468C15.8172 20.2756 16.6799 20.8081 16.6753 20.831C16.6661 20.8586 16.5285 21.111 16.065 21.9097L15.8356 21.9143C15.7071 21.9189 15.2483 21.9326 14.0185 21.9786L14.7573 22.4008C15.1611 22.6349 15.4915 22.8369 15.4915 22.8507C15.4915 22.8644 15.34 23.1261 15.1565 23.429C14.9775 23.7366 14.8169 23.9936 14.8032 24.0028C14.7894 24.0074 13.9221 23.5117 12.8759 22.892C11.8297 22.2769 10.9533 21.7445 10.9303 21.7169C10.9028 21.6756 10.9946 21.4782 11.5223 20.6015L12.2565 20.574C12.6603 20.5556 13.1145 20.5418 13.5413 20.5327L12.8209 20.1058C12.4217 19.8763 12.0913 19.6697 12.0867 19.6513C12.0821 19.633 12.2243 19.3714 12.4125 19.0638C12.596 18.7609 12.7658 18.513 12.7887 18.513ZM47.3366 23.6585C47.4743 23.6585 47.7037 23.6861 47.8414 23.7228C47.979 23.7595 48.1717 23.8467 48.2727 23.9202C48.3691 23.989 48.5113 24.1359 48.5893 24.2507C48.6673 24.3654 48.782 24.572 48.8417 24.7097C48.9013 24.8474 48.9885 25.1182 49.039 25.3064C49.0849 25.4946 49.1262 25.7654 49.1262 25.9031C49.1262 26.0408 49.0941 26.2703 49.0482 26.408C48.9885 26.6008 48.9059 26.7202 48.7132 26.913C48.5755 27.0507 48.3369 27.2297 48.1855 27.3123C48.0341 27.3903 47.7679 27.5097 47.589 27.5739C47.41 27.6336 47.1026 27.73 46.9007 27.7805C46.6988 27.8356 46.4097 27.8907 46.2583 27.9044C46.1023 27.9228 45.8637 27.909 45.7076 27.8769C45.5562 27.8448 45.3589 27.7851 45.2717 27.7392C45.1845 27.6933 45.0469 27.5877 44.9689 27.5005C44.8909 27.4179 44.7853 27.2848 44.7349 27.2113C44.6798 27.1379 44.5926 26.9589 44.5375 26.8211C44.4779 26.6834 44.3953 26.4264 44.3494 26.2474C44.3035 26.0684 44.2622 25.8021 44.2622 25.6507C44.2622 25.4992 44.2943 25.2697 44.3402 25.1457C44.3953 24.9805 44.4962 24.8382 44.6936 24.6408C44.8496 24.4894 45.0974 24.3012 45.2488 24.2185C45.4002 24.1405 45.7214 24.012 45.96 23.934C46.1986 23.8513 46.552 23.7595 46.7401 23.7228C46.9282 23.6907 47.199 23.6585 47.3366 23.6585ZM45.5012 25.6507C45.5012 25.6782 45.5425 25.8389 45.5975 26.0179C45.6526 26.1969 45.7489 26.3851 45.804 26.4402C45.8866 26.5182 45.9463 26.5366 46.0426 26.5182C46.1114 26.5044 46.4648 26.3989 46.8319 26.2841C47.199 26.1739 47.5936 26.05 47.7175 26.0133L47.9331 25.949C47.7358 25.3798 47.6441 25.1733 47.5982 25.1228C47.5569 25.0723 47.4743 25.031 47.4146 25.0356C47.3596 25.0356 46.9053 25.1641 46.4097 25.3202C45.9095 25.4762 45.5012 25.6231 45.5012 25.6507ZM9.75107 24.6179C9.76483 24.6179 9.97591 24.7005 10.2145 24.8061C10.4531 24.9117 10.6963 25.0126 10.8569 25.0769L10.6734 25.7516C10.5724 26.128 10.5082 26.4448 10.5265 26.4585C10.5449 26.4769 10.6596 26.5136 10.7881 26.5412C10.912 26.5687 11.0313 26.5779 11.0451 26.5595C11.0588 26.5411 11.1277 26.3071 11.1919 26.0408C11.2561 25.7746 11.3341 25.5038 11.4076 25.3064L11.8985 25.4441C12.1739 25.5221 12.3987 25.591 12.4079 25.5956C12.4171 25.6002 12.3482 25.8848 12.2611 26.2244C12.1739 26.5641 12.1096 26.8533 12.1188 26.8671C12.1234 26.8808 12.2289 26.9175 12.3528 26.9497C12.4767 26.9818 12.5823 27.0002 12.5868 26.9956C12.596 26.9864 12.6832 26.6513 12.7887 26.2474C12.8943 25.8434 12.9952 25.4946 13.009 25.4762C13.0228 25.4533 13.2843 25.5038 13.5872 25.5818C13.89 25.6598 14.1424 25.7287 14.1516 25.7333C14.1562 25.7379 13.9956 26.3759 13.7937 27.1516C13.5918 27.932 13.4266 28.5746 13.4266 28.5884C13.4266 28.6021 13.3899 28.6113 13.344 28.6113C13.3027 28.6113 12.3069 28.3588 11.1322 28.0513C9.95755 27.7484 8.99394 27.4959 8.98935 27.4913C8.98476 27.4867 9.14995 26.8395 9.35185 26.05C9.55834 25.2651 9.7373 24.6179 9.75107 24.6179ZM35.2547 37.1536C35.2639 37.1627 35.319 37.429 35.3832 37.7457C35.4474 38.0624 35.4979 38.347 35.4979 38.3745C35.4979 38.4204 35.3832 38.4342 35.0849 38.4342C34.8601 38.4342 34.672 38.4296 34.672 38.4204C34.672 38.4158 34.7821 38.1634 34.9152 37.8604C35.0528 37.5575 35.1813 37.2683 35.1997 37.2224C35.2226 37.1765 35.2455 37.1444 35.2547 37.1536Z" fill="#0972CE"/>
<path d="M22.8055 26.3071C22.8239 26.229 22.8927 26.1418 22.9845 26.0867H22.9799C23.1038 26.0133 23.2139 25.9949 23.5535 25.9949C23.7875 25.9949 24.1224 26.0271 24.3014 26.0638C24.5125 26.1097 24.618 26.151 24.6088 26.1923C24.5997 26.2199 24.4804 26.2658 24.3427 26.2841C24.205 26.3025 24.0169 26.3667 23.916 26.4218C23.8196 26.4769 23.7141 26.5779 23.6773 26.6513C23.6406 26.7202 23.6131 26.8533 23.6131 26.9497C23.6131 27.0415 23.6544 27.2435 23.7049 27.3949C23.7554 27.5464 23.8838 27.8264 23.994 28.0146C24.0995 28.2028 24.2326 28.4369 24.2922 28.5333C24.3473 28.6251 24.3794 28.7123 24.3565 28.7261C24.3381 28.7352 24.1867 28.6067 24.0169 28.4369C23.8471 28.2671 23.6085 27.9962 23.4892 27.831C23.3653 27.6657 23.1818 27.3674 23.0808 27.1654C22.9753 26.9635 22.8652 26.7156 22.833 26.6146C22.8055 26.5136 22.7917 26.3759 22.8055 26.3071Z" fill="#F6FEF6"/>
<path d="M26.325 27.9457C26.325 27.6933 26.3388 27.4087 26.3571 27.3169C26.3709 27.2205 26.3984 27.1516 26.4122 27.1608C26.4259 27.17 26.5774 27.2526 27.0592 27.5097L26.9674 27.8218C26.9169 27.9916 26.8297 28.3175 26.7793 28.5425C26.7058 28.8592 26.6875 29.0703 26.7013 29.4467C26.7104 29.7634 26.6967 29.9379 26.6691 29.9287C26.6416 29.9195 26.5774 29.7588 26.5177 29.5707C26.4581 29.3825 26.3938 29.0428 26.3709 28.8179C26.3479 28.593 26.325 28.1982 26.325 27.9457Z" fill="#F6FEF6"/>
<path d="M21.8281 28.1661C21.8281 28.0559 21.874 27.8356 21.9245 27.6703C21.9796 27.5051 22.0392 27.372 22.0621 27.372C22.0851 27.372 22.1677 27.5785 22.2411 27.831C22.3237 28.111 22.4659 28.4415 22.6082 28.6802C22.7321 28.8959 22.833 29.0795 22.8239 29.0933C22.8193 29.107 22.7321 29.0841 22.6311 29.0382C22.5302 28.9969 22.3466 28.8867 22.2227 28.7949C22.0989 28.7077 21.9612 28.57 21.9153 28.4966C21.8694 28.4231 21.8281 28.2716 21.8281 28.1661Z" fill="#F6FEF6"/>
<path d="M29.1149 28.5287C29.0965 28.3084 29.0736 28.0421 29.0644 27.9366C29.0461 27.753 29.0552 27.7392 29.1516 27.7392C29.2342 27.7392 29.2709 27.7713 29.2938 27.8631C29.3076 27.9366 29.3076 28.189 29.2893 28.4277C29.2709 28.6985 29.2388 28.8775 29.2021 28.8959C29.1608 28.9234 29.1378 28.8271 29.1149 28.5287Z" fill="#F6FEF6"/>
<path d="M34.5387 28.2074C34.3781 28.1202 34.3459 28.0834 34.401 28.0513C34.4377 28.0284 34.635 28.0146 34.8369 28.0238C35.1352 28.0375 35.2591 28.0651 35.5023 28.1844C35.7088 28.2808 35.8877 28.4231 36.085 28.6297C36.2456 28.7949 36.4338 29.0428 36.5072 29.1713C36.5852 29.3044 36.6357 29.4284 36.6219 29.4467C36.6127 29.4697 36.4934 29.3916 36.3603 29.2861C36.2319 29.1759 36.0024 29.0107 35.8556 28.9189C35.7133 28.8225 35.4013 28.6526 35.1673 28.5379C34.9379 28.4185 34.6534 28.2716 34.5387 28.2074Z" fill="#F6FEF6"/>
<path d="M33.1024 29.0933C33.0106 29.029 32.9097 28.9372 32.8822 28.8867C32.8409 28.8041 32.85 28.7949 33.0106 28.7949C33.1162 28.7949 33.2951 28.85 33.4603 28.9326C33.6117 29.0107 33.8182 29.1438 33.9192 29.231C34.0936 29.387 34.0981 29.3962 33.988 29.3916C33.9238 29.3916 33.7402 29.3503 33.575 29.2998C33.4099 29.2539 33.1988 29.1575 33.1024 29.0933Z" fill="#F6FEF6"/>
<path d="M19.8414 37.3876C19.8735 37.1673 19.9102 36.9607 19.9194 36.9332C19.9332 36.9011 19.9974 36.8735 20.0662 36.8735C20.1396 36.8735 20.2865 36.8965 20.4012 36.924C20.5159 36.9516 20.6444 37.0066 20.6903 37.048C20.7453 37.0985 20.7729 37.1948 20.7729 37.3325C20.7729 37.484 20.7453 37.5666 20.6673 37.6447C20.5893 37.7181 20.4654 37.764 20.2085 37.8053C20.0157 37.8329 19.8368 37.8421 19.8184 37.8237C19.8001 37.8053 19.8093 37.608 19.8414 37.3876Z" fill="#0972CE"/>
<path d="M23.4435 37.8604C23.5811 37.5575 23.7096 37.2683 23.728 37.2224C23.7509 37.1765 23.7738 37.1444 23.783 37.1535C23.7922 37.1627 23.8473 37.4289 23.9115 37.7457C23.9757 38.0624 24.0262 38.347 24.0262 38.3791C24.0262 38.4204 23.9115 38.4342 23.6132 38.4342C23.3884 38.4342 23.2003 38.4296 23.2003 38.425C23.2003 38.4158 23.3104 38.1634 23.4435 37.8604Z" fill="#0972CE"/>
</svg>
